<svg width="45" height="34" viewBox="0 0 45 34" fill="none" xmlns="http://www.w3.org/2000/svg">
<path d="M21.8071 25.8334H23.3701C25.5186 25.8334 27.4575 25.4896 29.187 24.8021C30.9272 24.1039 32.4204 23.1102 33.6665 21.8212C34.9126 20.5321 35.8687 18.996 36.5347 17.2128C37.2007 15.4188 37.5337 13.4315 37.5337 11.2509V7.88318C37.5337 6.46521 36.9106 5.22986 35.6646 4.17712C34.4185 3.12439 32.6729 2.30798 30.4277 1.72791C28.1934 1.13708 25.583 0.841675 22.5967 0.841675C19.6104 0.841675 16.9946 1.13708 14.7495 1.72791C12.5044 2.30798 10.7588 3.12439 9.5127 4.17712C8.2666 5.22986 7.64355 6.46521 7.64355 7.88318V11.2509C7.64355 13.3993 7.97656 15.3651 8.64258 17.1483C9.31934 18.9208 10.2754 20.4569 11.5107 21.7567C12.7568 23.0565 14.25 24.0609 15.9902 24.7699C17.7305 25.4789 19.6694 25.8334 21.8071 25.8334ZM22.5967 11.3959C20.4482 11.3959 18.5093 11.2347 16.7798 10.9125C15.061 10.5902 13.6914 10.1659 12.6709 9.63953C11.6611 9.10242 11.1562 8.51697 11.1562 7.88318C11.1562 7.23865 11.6611 6.6532 12.6709 6.12683C13.6914 5.60046 15.061 5.17615 16.7798 4.85388C18.5093 4.52087 20.4482 4.35437 22.5967 4.35437C24.7451 4.35437 26.6787 4.52087 28.3975 4.85388C30.127 5.17615 31.4966 5.60046 32.5063 6.12683C33.5269 6.6532 34.0371 7.23865 34.0371 7.88318C34.0371 8.51697 33.5269 9.10242 32.5063 9.63953C31.4966 10.1659 30.127 10.5902 28.3975 10.9125C26.6787 11.2347 24.7451 11.3959 22.5967 11.3959ZM35.4229 18.244H37.002C38.9141 18.244 40.4126 17.766 41.4976 16.8099C42.5933 15.8539 43.1411 14.538 43.1411 12.8622C43.1411 11.2079 42.5933 9.90271 41.4976 8.94666C40.4019 7.9906 38.9033 7.51257 37.002 7.51257H35.5356V10.8641H37.002C37.8936 10.8641 38.5757 11.0414 39.0483 11.3959C39.5317 11.7396 39.7734 12.2284 39.7734 12.8622C39.7734 13.5067 39.5317 14.0062 39.0483 14.3607C38.5757 14.7152 37.8936 14.8925 37.002 14.8925H35.4229V18.244ZM22.5 33.9384C25.7334 33.9384 28.6929 33.7181 31.3784 33.2777C34.064 32.8373 36.3843 32.2035 38.3394 31.3763C40.2944 30.5599 41.8037 29.5878 42.8672 28.4598C43.9414 27.3212 44.4785 26.059 44.4785 24.6732C44.4785 23.6957 44.1885 22.7719 43.6084 21.9017C43.0391 21.0316 42.2227 20.2367 41.1592 19.517C40.6113 19.7855 40.0259 19.995 39.4028 20.1454C38.7798 20.285 38.1084 20.371 37.3887 20.4032C36.0244 22.7772 34.1338 24.6356 31.7168 25.9784C29.3105 27.3212 26.5283 27.9926 23.3701 27.9926H21.8071C19.3901 27.9926 17.1826 27.5844 15.1846 26.7679C13.1865 25.9408 11.4624 24.7806 10.0122 23.2875C8.56201 21.7943 7.44482 20.0219 6.66064 17.9701C4.70557 18.7972 3.19092 19.7802 2.1167 20.9188C1.04248 22.0468 0.505371 23.2982 0.505371 24.6732C0.505371 26.059 1.03711 27.3212 2.10059 28.4598C3.1748 29.5878 4.68945 30.5599 6.64453 31.3763C8.61035 32.2035 10.936 32.8373 13.6216 33.2777C16.3071 33.7181 19.2666 33.9384 22.5 33.9384Z" fill="black"/>
</svg>
