<svg width="45" height="46" viewBox="0 0 45 46" fill="none" xmlns="http://www.w3.org/2000/svg">
<g clip-path="url(#clip0_109_929)">
<path fill-rule="evenodd" clip-rule="evenodd" d="M6.33005 2.33269C11.7601 6.2777 27.7501 28.7927 30.3301 28.1627C32.1901 27.7127 32.7001 27.5027 34.5901 27.8627C36.0151 28.1327 37.1551 28.6127 38.1301 29.2427C41.4601 31.4177 46.0051 38.1977 43.8301 42.9677C43.6801 43.2677 43.3801 43.5827 43.0501 43.7327C38.2951 45.8627 31.5451 41.3327 29.3701 38.0177C28.7251 37.0427 28.2601 35.9027 27.9901 34.4777C27.6301 32.6027 27.8401 32.0927 28.2901 30.2177C28.9201 27.6377 6.39005 11.6477 2.46005 6.21769C-0.449947 2.22769 1.35005 -1.29731 6.33005 2.33269Z" fill="black"/>
</g>
<defs>
<clipPath id="clip0_109_929">
<rect width="45" height="45" fill="white" transform="translate(0 0.00769043)"/>
</clipPath>
</defs>
</svg>
