<?xml version="1.0" encoding="UTF-8"?><svg xmlns="http://www.w3.org/2000/svg" viewBox="0 0 44.08 28.52"><defs><style>.d{fill:#fff;}</style></defs><g id="a"/><g id="b"><g id="c"><g><path class="d" d="M3.13,3.73c2.7-1.26,5.5-2.12,8.39-2.67C20.2-.61,28.82-.39,37.28,2.32c2.07,.66,4.02,1.69,5.99,2.63,.96,.46,1.01,.83,.42,1.73-4.63,7.12-9.27,14.23-13.93,21.33-.17,.26-.6,.48-.91,.49-3.21,.04-6.42,.03-9.64,0-.2,0-.49-.14-.6-.3C13.46,20.12,8.31,12.02,3.17,3.92c-.02-.03-.02-.08-.04-.19Z"/><path class="d" d="M2.15,4.19c5.16,8.11,10.27,16.15,15.45,24.3-.99,0-1.89,.02-2.79-.02-.17,0-.38-.25-.5-.43C9.66,20.92,5,13.78,.36,6.64c-.57-.87-.48-1.16,.42-1.7,.43-.25,.87-.48,1.38-.75Z"/></g></g></g></svg>