<svg width="45" height="46" viewBox="0 0 45 46" fill="none" xmlns="http://www.w3.org/2000/svg">
<g clip-path="url(#clip0_109_952)">
<path fill-rule="evenodd" clip-rule="evenodd" d="M27.51 0.412689C19.935 0.412689 13.8 6.78769 13.8 14.6477C13.8 15.7127 13.905 16.7477 14.13 17.7377C15.03 17.2277 15.975 16.8077 16.98 16.4927C16.89 15.9527 16.845 15.3827 16.845 14.8127C16.845 8.91769 21.615 4.14769 27.51 4.14769C33.4051 4.14769 38.175 8.91769 38.175 14.8127C38.175 16.9877 37.5301 19.0127 36.4051 20.7077C37.14 21.5327 37.77 22.4477 38.31 23.4227C40.14 21.0077 41.22 17.9627 41.22 14.6477C41.22 6.78769 35.085 0.412689 27.51 0.412689Z" fill="black"/>
<path fill-rule="evenodd" clip-rule="evenodd" d="M21.24 15.8477C30.765 15.8477 40.02 19.0127 40.02 30.2327V42.4577C40.02 43.6427 39.045 44.6177 37.86 44.6177H9.32998C7.97998 44.6177 6.85498 43.5077 6.85498 42.1427V30.2327C6.85498 23.8127 11.13 18.3377 16.965 16.5077C18.315 16.0877 19.755 15.8627 21.24 15.8627V15.8477Z" fill="black"/>
<path d="M26.276 14.6968L25.9839 16.2902L27.1937 16.512L27.4859 14.9186L26.276 14.6968Z" fill="black"/>
<path fill-rule="evenodd" clip-rule="evenodd" d="M27.72 10.2227C28.77 10.4177 29.415 11.7077 29.16 13.1027C28.905 14.4977 27.84 15.4877 26.79 15.2927C25.74 15.0977 25.095 13.8077 25.35 12.4127C25.605 11.0177 26.67 10.0277 27.72 10.2227Z" fill="black"/>
<path fill-rule="evenodd" clip-rule="evenodd" d="M7.36499 17.0777L2.23499 20.6477L8.24999 24.0977C9.07499 22.3577 10.245 20.8127 11.655 19.5377L7.36499 17.0777Z" fill="black"/>
</g>
<defs>
<clipPath id="clip0_109_952">
<rect width="45" height="45" fill="white" transform="translate(0 0.00769043)"/>
</clipPath>
</defs>
</svg>
