<svg width="45" height="46" viewBox="0 0 45 46" fill="none" xmlns="http://www.w3.org/2000/svg">
<path d="M43.215 10.6127C41.85 7.71768 38.985 7.34268 36.45 7.70268C35.76 7.79268 35.115 7.94268 34.515 8.10768C33.78 8.30268 33.06 7.98768 32.7 7.38768C32.55 7.14768 32.46 6.86268 32.46 6.54768C32.46 5.88768 32.43 5.54268 32.43 5.54268C32.43 3.41268 25.335 1.67268 16.575 1.67268C7.81499 1.67268 0.734985 3.39768 0.734985 5.52768C0.734985 5.52768 0.974985 28.6577 6.95999 40.7327C7.19999 41.3777 7.91999 41.9627 8.98499 42.4577C10.29 43.0427 12.105 43.4777 14.205 43.6727C14.97 43.7477 15.765 43.7777 16.59 43.7777C21.525 43.7777 25.59 42.4577 26.22 40.7327H26.31C26.7 39.9527 27.225 38.6177 27.63 37.5527C28.005 36.5627 28.815 35.7827 29.82 35.4227C44.58 29.9177 45.87 16.1927 43.23 10.6127H43.215ZM26.43 9.20268C23.865 9.80268 20.4 10.1627 16.59 10.1627C12.78 10.1627 9.31499 9.80268 6.74999 9.20268C4.00499 8.55768 2.29499 7.65768 2.29499 6.66768C2.29499 4.73268 8.69999 3.17268 16.59 3.17268C24.48 3.17268 30.9 4.73268 30.9 6.66768C30.9 7.67268 29.19 8.55768 26.445 9.20268H26.43ZM39.645 23.1227C39.525 23.4677 39.39 23.7827 39.24 24.0827C37.185 28.4177 33.255 29.6027 30.675 29.9027C30.255 29.9477 29.91 29.5727 30 29.1677C30.105 28.7027 30.195 28.2227 30.285 27.7577C31.08 23.6627 31.59 19.5077 31.92 15.9077C32.265 16.1777 32.7 16.3277 33.18 16.3277C33.6 16.3277 33.975 16.1477 34.245 15.8777C34.515 15.6077 34.695 15.2327 34.725 14.8277C34.8 13.3127 35.37 11.1527 37.905 10.7627C41.85 10.1477 42.525 15.3077 39.645 23.1227Z" fill="black"/>
</svg>
