<svg width="45" height="46" viewBox="0 0 45 46" fill="none" xmlns="http://www.w3.org/2000/svg">
<g clip-path="url(#clip0_109_906)">
<path fill-rule="evenodd" clip-rule="evenodd" d="M6.22502 0.622692L3.64502 2.04769L6.88502 5.13769C7.20002 5.43769 7.36502 5.76769 7.41002 6.17269L11.82 42.9077C11.955 44.0027 12.99 44.8277 14.25 44.8277H29.955C31.26 44.8277 32.34 43.9277 32.4 42.7727L33.12 29.3477H38.43C39.315 29.3477 40.11 28.9877 40.695 28.4027C41.28 27.8177 41.64 27.0227 41.64 26.1377V10.4327C41.64 9.54769 41.28 8.75269 40.695 8.16769C40.11 7.58269 39.315 7.22269 38.43 7.22269H34.305L34.68 0.352692H7.30502C6.90002 0.352692 6.57002 0.442692 6.22502 0.622692ZM33.27 26.7077L34.185 9.84769H38.445C38.61 9.84769 38.745 9.90769 38.85 10.0127C38.955 10.1177 39.015 10.2677 39.015 10.4177V26.1227C39.015 26.2877 38.955 26.4227 38.85 26.5277C38.745 26.6327 38.595 26.6927 38.445 26.6927H33.27V26.7077Z" fill="black"/>
<path fill-rule="evenodd" clip-rule="evenodd" d="M14.295 8.7077C14.13 8.7077 13.98 8.58769 13.98 8.43769C13.98 8.28769 14.115 8.16769 14.295 8.16769H28.095C28.26 8.16769 28.41 8.28769 28.41 8.43769C28.41 8.58769 28.275 8.7077 28.095 8.7077H14.295Z" fill="white"/>
<path fill-rule="evenodd" clip-rule="evenodd" d="M14.295 18.2927C14.13 18.2927 13.98 18.1727 13.98 18.0227C13.98 17.8727 14.115 17.7527 14.295 17.7527H28.095C28.26 17.7527 28.41 17.8727 28.41 18.0227C28.41 18.1727 28.275 18.2927 28.095 18.2927H14.295Z" fill="white"/>
<path fill-rule="evenodd" clip-rule="evenodd" d="M14.295 27.3377C14.13 27.3377 13.98 27.2177 13.98 27.0677C13.98 26.9177 14.115 26.7977 14.295 26.7977H28.095C28.26 26.7977 28.41 26.9177 28.41 27.0677C28.41 27.2177 28.275 27.3377 28.095 27.3377H14.295Z" fill="white"/>
<path fill-rule="evenodd" clip-rule="evenodd" d="M14.295 36.3977C14.13 36.3977 13.98 36.2777 13.98 36.1277C13.98 35.9777 14.115 35.8577 14.295 35.8577H28.095C28.26 35.8577 28.41 35.9777 28.41 36.1277C28.41 36.2777 28.275 36.3977 28.095 36.3977H14.295Z" fill="white"/>
<path fill-rule="evenodd" clip-rule="evenodd" d="M17.2501 11.5727C17.0851 11.5727 16.9351 11.4527 16.9351 11.3027C16.9351 11.1527 17.0701 11.0327 17.2501 11.0327H25.1401C25.3051 11.0327 25.4551 11.1527 25.4551 11.3027C25.4551 11.4527 25.3201 11.5727 25.1401 11.5727H17.2501Z" fill="white"/>
<path fill-rule="evenodd" clip-rule="evenodd" d="M17.2501 20.6177C17.0851 20.6177 16.9351 20.4977 16.9351 20.3477C16.9351 20.1977 17.0701 20.0777 17.2501 20.0777H25.1401C25.3051 20.0777 25.4551 20.1977 25.4551 20.3477C25.4551 20.4977 25.3201 20.6177 25.1401 20.6177H17.2501Z" fill="white"/>
<path fill-rule="evenodd" clip-rule="evenodd" d="M17.2501 29.7677C17.0851 29.7677 16.9351 29.6477 16.9351 29.4977C16.9351 29.3477 17.0701 29.2277 17.2501 29.2277H25.1401C25.3051 29.2277 25.4551 29.3477 25.4551 29.4977C25.4551 29.6477 25.3201 29.7677 25.1401 29.7677H17.2501Z" fill="white"/>
<path fill-rule="evenodd" clip-rule="evenodd" d="M17.2501 13.8077C17.0851 13.8077 16.9351 13.6877 16.9351 13.5377C16.9351 13.3877 17.0701 13.2677 17.2501 13.2677H25.1401C25.3051 13.2677 25.4551 13.3877 25.4551 13.5377C25.4551 13.6877 25.3201 13.8077 25.1401 13.8077H17.2501Z" fill="white"/>
<path fill-rule="evenodd" clip-rule="evenodd" d="M17.2501 22.8677C17.0851 22.8677 16.9351 22.7477 16.9351 22.5977C16.9351 22.4477 17.0701 22.3277 17.2501 22.3277H25.1401C25.3051 22.3277 25.4551 22.4477 25.4551 22.5977C25.4551 22.7477 25.3201 22.8677 25.1401 22.8677H17.2501Z" fill="white"/>
<path fill-rule="evenodd" clip-rule="evenodd" d="M17.2501 32.0027C17.0851 32.0027 16.9351 31.8827 16.9351 31.7327C16.9351 31.5827 17.0701 31.4627 17.2501 31.4627H25.1401C25.3051 31.4627 25.4551 31.5827 25.4551 31.7327C25.4551 31.8827 25.3201 32.0027 25.1401 32.0027H17.2501Z" fill="white"/>
<path fill-rule="evenodd" clip-rule="evenodd" d="M17.2501 15.9677C17.0851 15.9677 16.9351 15.8477 16.9351 15.6977C16.9351 15.5477 17.0701 15.4277 17.2501 15.4277H25.1401C25.3051 15.4277 25.4551 15.5477 25.4551 15.6977C25.4551 15.8477 25.3201 15.9677 25.1401 15.9677H17.2501Z" fill="white"/>
<path fill-rule="evenodd" clip-rule="evenodd" d="M17.2501 25.0127C17.0851 25.0127 16.9351 24.8927 16.9351 24.7427C16.9351 24.5927 17.0701 24.4727 17.2501 24.4727H25.1401C25.3051 24.4727 25.4551 24.5927 25.4551 24.7427C25.4551 24.8927 25.3201 25.0127 25.1401 25.0127H17.2501Z" fill="white"/>
<path fill-rule="evenodd" clip-rule="evenodd" d="M17.2501 34.1627C17.0851 34.1627 16.9351 34.0427 16.9351 33.8927C16.9351 33.7427 17.0701 33.6227 17.2501 33.6227H25.1401C25.3051 33.6227 25.4551 33.7427 25.4551 33.8927C25.4551 34.0427 25.3201 34.1627 25.1401 34.1627H17.2501Z" fill="white"/>
<path fill-rule="evenodd" clip-rule="evenodd" d="M17.2501 38.5427C17.0851 38.5427 16.9351 38.4227 16.9351 38.2727C16.9351 38.1227 17.0701 38.0027 17.2501 38.0027H25.1401C25.3051 38.0027 25.4551 38.1227 25.4551 38.2727C25.4551 38.4227 25.3201 38.5427 25.1401 38.5427H17.2501Z" fill="white"/>
</g>
<defs>
<clipPath id="clip0_109_906">
<rect width="45" height="45" fill="white" transform="translate(0 0.00769043)"/>
</clipPath>
</defs>
</svg>
