<svg width="45" height="46" viewBox="0 0 45 46" fill="none" xmlns="http://www.w3.org/2000/svg">
<g clip-path="url(#clip0_109_961)">
<path d="M32.13 8.64769L32.835 8.07769L31.695 4.88269L29.445 10.5527L32.13 8.64769Z" fill="black"/>
<path d="M11.34 44.4077H27.345V13.0427H11.34V44.4077ZM19.335 24.4577C22.275 24.4577 24.645 25.7477 24.645 27.3527C24.645 28.9577 22.26 30.2477 19.335 30.2477C16.41 30.2477 14.025 28.9577 14.025 27.3527C14.025 25.7477 16.41 24.4577 19.335 24.4577Z" fill="black"/>
<path d="M30.585 0.667694H14.58V3.54769H30.585V0.667694Z" fill="black"/>
<path d="M14.37 4.86769L11.655 11.7227H27.555L30.27 4.86769H14.37Z" fill="black"/>
<path d="M28.665 12.7277V43.6877L33.105 40.1177V9.5777L28.665 12.7277Z" fill="black"/>
</g>
<defs>
<clipPath id="clip0_109_961">
<rect width="45" height="45" fill="white" transform="translate(0 0.00769043)"/>
</clipPath>
</defs>
</svg>
