<?xml version="1.0" encoding="UTF-8"?><svg xmlns="http://www.w3.org/2000/svg" viewBox="0 0 44.39 44.52"><defs><style>.d{fill:#fff;fill-rule:evenodd;}</style></defs><g id="a"/><g id="b"><g id="c"><path class="d" d="M5.4,1.55c5.56,4.05,21.95,27.1,24.59,26.46,1.91-.46,2.43-.68,4.36-.31,1.46,.28,2.63,.76,3.63,1.42,3.42,2.24,8.07,9.18,5.84,14.06-.15,.31-.46,.64-.8,.78-4.88,2.18-11.79-2.45-14.02-5.86-.65-1-1.14-2.17-1.42-3.63-.37-1.93-.15-2.45,.31-4.36C28.52,27.47,5.45,11.1,1.42,5.53-1.54,1.44,.3-2.16,5.4,1.55Z"/></g></g></svg>