<?xml version="1.0" encoding="UTF-8"?><svg xmlns="http://www.w3.org/2000/svg" viewBox="0 0 44.34 38.39"><g id="a"/><g id="b"><g id="c"><g><path d="M0,17.64c.09-.74,.15-1.49,.26-2.22C.85,11.23,2.28,7.39,5.05,4.13c1.53-1.81,3.63-3.24,5.55-3.77-.07,.14-.11,.25-.16,.35-2.43,4.31-3.47,8.93-3.14,13.86,.2,3.03,.95,5.94,2.3,8.66,1.28,2.58,2.13,5.27,2.41,8.15,.04,.4,.07,.8,.07,1.21,0,1.89,0,3.77,0,5.78-.79-.24-1.58-.41-2.31-.71-2.45-.99-4.29-2.72-5.78-4.85C1.89,29.81,.74,26.45,.25,22.85c-.1-.73-.17-1.45-.25-2.18v-3.03Z"/><path d="M44.34,26.55c-.38,1.06-.66,2.19-1.18,3.18-1.33,2.54-3.46,4.32-5.94,5.7-4.24,2.36-8.83,3.16-13.64,2.92-.65-.03-1.29-.11-1.94-.18-.07,0-.13-.03-.25-.06,.34-.3,.66-.57,.96-.85,2.18-2.04,3.76-4.5,4.91-7.24,.13-.3,.3-.48,.6-.61,1.46-.61,2.89-1.31,4.37-1.86,2.33-.87,4.76-1.23,7.25-1.24,1.61,0,3.23-.02,4.84-.03v.26Z"/><path d="M14.71,0c1.93,.29,3.58,1.07,5.06,2.23,2.39,1.89,4.01,4.35,5.16,7.13,1.6,3.87,2.1,7.91,1.77,12.06-.31,3.8-1.34,7.38-3.39,10.63-1.42,2.26-3.21,4.14-5.65,5.33-.45,.22-.92,.39-1.51,.64,.12-.24,.19-.37,.26-.5,3.96-7.39,4.29-14.92,.75-22.53-1.6-3.43-2.53-6.96-2.45-10.75,.03-1.39,0-2.79,0-4.25Z"/><path d="M12.03,3.28c.09,1.56,.11,3.07,.27,4.57,.27,2.66,1.03,5.19,2.21,7.59,1.23,2.48,2.06,5.06,2.34,7.81,.41,4.05-.27,7.92-1.99,11.6-.02,.04-.05,.07-.16,.21,0-.28,0-.45,0-.62,.07-3.44-.43-6.78-1.72-9.97-.55-1.36-1.25-2.66-1.76-4.03-2.08-5.66-1.85-11.26,.6-16.76,.06-.13,.13-.25,.2-.39Z"/><path d="M29.39,18.95c-.02-2.4-.31-4.74-.91-7.12,.6,.1,1.16,.17,1.72,.28,3.92,.76,7.5,2.25,10.47,5,1.48,1.37,2.63,2.98,3.27,4.91,.02,.05,.03,.1,.07,.25-4.56-2.62-9.4-3.71-14.61-3.31Z"/><path d="M28.6,26.25l.76-4.68c4.04-.39,7.92,.3,11.63,2.09-2.12,.04-4.24,.11-6.33,.54-2.1,.43-4.11,1.11-6.06,2.05Z"/></g></g></g></svg>