<?xml version="1.0" encoding="UTF-8"?><svg xmlns="http://www.w3.org/2000/svg" viewBox="0 0 37.81 44.23"><defs><style>.d{fill:#fff;}.d,.e{fill-rule:evenodd;}</style></defs><g id="a"/><g id="b"><g id="c"><g><path class="e" d="M2.57,.27L0,1.68l3.22,3.07c.31,.29,.48,.62,.53,1.02l4.38,36.54c.13,1.09,1.17,1.92,2.42,1.92h15.63c1.3,0,2.37-.9,2.43-2.04l.72-13.36h5.29c.88,0,1.68-.36,2.25-.94h0c.58-.58,.94-1.38,.94-2.25V10.03c0-.88-.36-1.67-.94-2.25h0c-.58-.58-1.37-.94-2.25-.94h-4.1l.37-6.83H3.64c-.4,0-.74,.09-1.07,.27h0ZM29.47,26.22l.91-16.77h4.24c.16,0,.3,.06,.41,.17,.1,.1,.17,.25,.17,.41v15.62c0,.16-.06,.3-.17,.41h0c-.1,.1-.25,.17-.4,.17h-5.15Z"/><path class="d" d="M10.59,8.31c-.17,0-.31-.12-.31-.27s.14-.27,.31-.27h13.72c.17,0,.31,.12,.31,.27s-.14,.27-.31,.27H10.59Z"/><path class="d" d="M10.59,17.85c-.17,0-.31-.12-.31-.27s.14-.27,.31-.27h13.72c.17,0,.31,.12,.31,.27s-.14,.27-.31,.27H10.59Z"/><path class="d" d="M10.59,26.85c-.17,0-.31-.12-.31-.27s.14-.27,.31-.27h13.72c.17,0,.31,.12,.31,.27s-.14,.27-.31,.27H10.59Z"/><path class="d" d="M10.59,35.86c-.17,0-.31-.12-.31-.27s.14-.27,.31-.27h13.72c.17,0,.31,.12,.31,.27s-.14,.27-.31,.27H10.59Z"/><path class="d" d="M13.53,11.16c-.17,0-.31-.12-.31-.27s.14-.27,.31-.27h7.84c.17,0,.31,.12,.31,.27s-.14,.27-.31,.27h-7.84Z"/><path class="d" d="M13.53,20.16c-.17,0-.31-.12-.31-.27s.14-.27,.31-.27h7.84c.17,0,.31,.12,.31,.27s-.14,.27-.31,.27h-7.84Z"/><path class="d" d="M13.53,29.26c-.17,0-.31-.12-.31-.27s.14-.27,.31-.27h7.84c.17,0,.31,.12,.31,.27s-.14,.27-.31,.27h-7.84Z"/><path class="d" d="M13.53,13.39c-.17,0-.31-.12-.31-.27s.14-.27,.31-.27h7.84c.17,0,.31,.12,.31,.27s-.14,.27-.31,.27h-7.84Z"/><path class="d" d="M13.53,22.39c-.17,0-.31-.12-.31-.27s.14-.27,.31-.27h7.84c.17,0,.31,.12,.31,.27s-.14,.27-.31,.27h-7.84Z"/><path class="d" d="M13.53,31.49c-.17,0-.31-.12-.31-.27s.14-.27,.31-.27h7.84c.17,0,.31,.12,.31,.27s-.14,.27-.31,.27h-7.84Z"/><path class="d" d="M13.53,15.53c-.17,0-.31-.12-.31-.27s.14-.27,.31-.27h7.84c.17,0,.31,.12,.31,.27s-.14,.27-.31,.27h-7.84Z"/><path class="d" d="M13.53,24.53c-.17,0-.31-.12-.31-.27s.14-.27,.31-.27h7.84c.17,0,.31,.12,.31,.27s-.14,.27-.31,.27h-7.84Z"/><path class="d" d="M13.53,33.63c-.17,0-.31-.12-.31-.27s.14-.27,.31-.27h7.84c.17,0,.31,.12,.31,.27s-.14,.27-.31,.27h-7.84Z"/><path class="d" d="M13.53,38c-.17,0-.31-.12-.31-.27s.14-.27,.31-.27h7.84c.17,0,.31,.12,.31,.27s-.14,.27-.31,.27h-7.84Z"/></g></g></g></svg>