<svg width="45" height="46" viewBox="0 0 45 46" fill="none" xmlns="http://www.w3.org/2000/svg">
<path d="M3.97502 13.8227C6.61502 12.5927 9.36002 11.7527 12.195 11.2127C20.7 9.57768 29.145 9.80269 37.425 12.4577C39.45 13.1027 41.37 14.1077 43.29 15.0377C44.235 15.4877 44.28 15.8477 43.695 16.7327C39.15 23.7077 34.62 30.6677 30.045 37.6277C29.88 37.8827 29.46 38.0927 29.16 38.1077C26.01 38.1377 22.875 38.1377 19.725 38.1077C19.53 38.1077 19.245 37.9727 19.14 37.8077C14.085 29.8877 9.04502 21.9527 4.00502 14.0177C3.99002 13.9877 3.99002 13.9427 3.96002 13.8377L3.97502 13.8227Z" fill="black"/>
<path d="M3.01501 14.2727C8.07001 22.2227 13.08 30.0977 18.15 38.0777C17.175 38.0777 16.29 38.1077 15.42 38.0627C15.255 38.0627 15.045 37.8227 14.94 37.6427C10.38 30.6527 5.82001 23.6627 1.26001 16.6727C0.705011 15.8177 0.795011 15.5327 1.66501 15.0077C2.08501 14.7527 2.52001 14.5427 3.01501 14.2727Z" fill="black"/>
</svg>
