<svg width="45" height="46" viewBox="0 0 45 46" fill="none" xmlns="http://www.w3.org/2000/svg">
<g clip-path="url(#clip0_109_900)">
<path d="M29.565 41.2127H14.88C14.4907 41.2127 14.175 41.5283 14.175 41.9177C14.175 42.3071 14.4907 42.6227 14.88 42.6227H29.565C29.9544 42.6227 30.2701 42.3071 30.2701 41.9177C30.2701 41.5283 29.9544 41.2127 29.565 41.2127Z" fill="black"/>
<path fill-rule="evenodd" clip-rule="evenodd" d="M3.10498 24.4277C3.10498 31.8677 8.09998 38.2277 15.165 40.8227H29.28C36.345 38.2277 41.34 31.8677 41.34 24.4277H3.10498Z" fill="black"/>
<path d="M35.7697 4.38086L36.2849 3.57084C36.7196 2.88739 37.6388 2.67208 38.3349 3.11487L43.7772 6.57665C44.4607 7.01138 44.676 7.93055 44.2332 8.62666L43.7179 9.43667C43.2752 10.1328 42.364 10.3354 41.6679 9.89265L36.2256 6.43087C35.5422 5.99613 35.3269 5.07696 35.7697 4.38086Z" fill="black"/>
<path fill-rule="evenodd" clip-rule="evenodd" d="M1.84504 20.9177H42.6C43.32 20.9177 43.905 21.5027 43.905 22.2227C43.905 22.9427 43.32 23.5277 42.6 23.5277H1.84504C1.12504 23.5277 0.540039 22.9427 0.540039 22.2227C0.540039 21.5027 1.12504 20.9177 1.84504 20.9177Z" fill="black"/>
<path fill-rule="evenodd" clip-rule="evenodd" d="M36.255 6.44269L26.385 20.9177H35.1L41.655 9.86269L36.255 6.44269Z" fill="black"/>
</g>
<defs>
<clipPath id="clip0_109_900">
<rect width="45" height="45" fill="white" transform="translate(0 0.00769043)"/>
</clipPath>
</defs>
</svg>
