<?xml version="1.0" encoding="UTF-8"?><svg xmlns="http://www.w3.org/2000/svg" viewBox="0 0 39.3 44.55"><defs><style>.d{fill-rule:evenodd;}</style></defs><g id="a"/><g id="b"><g id="c"><g><path class="d" d="M25.48,0c-7.63,0-13.82,6.43-13.82,14.35,0,1.07,.11,2.12,.33,3.12,.9-.52,1.86-.94,2.87-1.26-.09-.55-.13-1.11-.13-1.69,0-5.94,4.82-10.76,10.76-10.76s10.76,4.82,10.76,10.76c0,2.19-.66,4.23-1.78,5.94,.74,.83,1.38,1.75,1.91,2.73,1.84-2.44,2.94-5.51,2.94-8.84,0-7.93-6.19-14.35-13.82-14.35Z"/><path class="d" d="M19.17,15.56c9.61,0,18.94,3.19,18.94,14.49v12.32c0,1.2-.98,2.17-2.17,2.17H7.16c-1.37,0-2.49-1.12-2.49-2.49v-12.01c0-6.47,4.3-11.99,10.19-13.84,1.36-.43,2.81-.66,4.3-.66Z"/><rect x="23.87" y="14.69" width="1.64" height="1.24" transform="translate(5.18 36.84) rotate(-79.61)"/><path class="d" d="M25.69,9.9c1.06,.19,1.71,1.5,1.45,2.91-.26,1.41-1.33,2.4-2.39,2.2-1.06-.19-1.71-1.5-1.45-2.91,.26-1.41,1.33-2.4,2.39-2.2Z"/><path class="d" d="M5.18,16.8L0,20.4l6.07,3.47c.83-1.75,2.01-3.31,3.44-4.6l-4.32-2.47Z"/></g></g></g></svg>