<svg width="45" height="46" viewBox="0 0 45 46" fill="none" xmlns="http://www.w3.org/2000/svg">
<path d="M0 20.8877C0.09 20.1377 0.15 19.3877 0.27 18.6377C0.87 14.3927 2.325 10.4927 5.13 7.17769C6.69 5.34769 8.82 3.89269 10.755 3.35269C10.695 3.48769 10.65 3.60769 10.59 3.71269C8.115 8.07769 7.065 12.7727 7.41 17.7827C7.62 20.8577 8.37 23.8127 9.75 26.5727C11.055 29.1977 11.91 31.9277 12.195 34.8377C12.24 35.2427 12.27 35.6477 12.27 36.0677C12.27 37.9877 12.27 39.8927 12.27 41.9327C11.46 41.6927 10.665 41.5127 9.93 41.2127C7.44 40.2077 5.58 38.4527 4.065 36.2927C1.935 33.2477 0.765 29.8427 0.27 26.1827C0.165 25.4477 0.09 24.7127 0.015 23.9627V20.8877H0Z" fill="black"/>
<path d="M45 29.9177C44.61 30.9977 44.34 32.1377 43.8 33.1427C42.45 35.7227 40.29 37.5227 37.77 38.9177C33.465 41.3177 28.815 42.1277 23.925 41.8877C23.265 41.8577 22.62 41.7677 21.96 41.7077C21.885 41.7077 21.825 41.6777 21.705 41.6477C22.05 41.3477 22.38 41.0777 22.68 40.7927C24.9 38.7227 26.505 36.2327 27.66 33.4427C27.795 33.1427 27.96 32.9627 28.275 32.8277C29.76 32.2127 31.2 31.5077 32.715 30.9377C35.085 30.0527 37.545 29.6927 40.065 29.6777C41.7 29.6777 43.335 29.6627 44.985 29.6477V29.9177H45Z" fill="black"/>
<path d="M14.925 2.97769C16.89 3.27769 18.555 4.05769 20.055 5.24269C22.485 7.16269 24.12 9.65269 25.29 12.4877C26.91 16.4177 27.42 20.5127 27.09 24.7277C26.775 28.5827 25.74 32.2127 23.655 35.5127C22.215 37.8077 20.4 39.7127 17.925 40.9127C17.475 41.1377 16.995 41.3177 16.395 41.5577C16.515 41.3027 16.59 41.1827 16.65 41.0477C20.67 33.5477 21 25.9127 17.4 18.1877C15.78 14.7077 14.835 11.1227 14.91 7.28269C14.94 5.87269 14.91 4.44769 14.91 2.97769H14.925Z" fill="black"/>
<path d="M12.2099 6.32269C12.2999 7.89769 12.3299 9.44269 12.4799 10.9577C12.7499 13.6577 13.5149 16.2227 14.7299 18.6527C15.9749 21.1577 16.8149 23.7827 17.0999 26.5877C17.5199 30.6977 16.8299 34.6127 15.0899 38.3627C15.0749 38.3927 15.0449 38.4377 14.9249 38.5727C14.9249 38.2877 14.9249 38.1077 14.9249 37.9427C14.9999 34.4627 14.4899 31.0727 13.1849 27.8177C12.6299 26.4377 11.9099 25.1177 11.3999 23.7227C9.28494 17.9777 9.52495 12.2927 12.0149 6.71269C12.0749 6.57769 12.1499 6.45769 12.2099 6.32269Z" fill="black"/>
<path d="M29.82 22.2077C29.805 19.7627 29.505 17.4077 28.905 14.9777C29.52 15.0827 30.09 15.1577 30.645 15.2627C34.62 16.0277 38.25 17.5427 41.265 20.3327C42.765 21.7277 43.935 23.3477 44.58 25.3127C44.595 25.3577 44.61 25.4177 44.655 25.5677C40.035 22.9127 35.115 21.8027 29.835 22.2077H29.82Z" fill="black"/>
<path d="M29.025 29.6177L29.79 24.8627C33.885 24.4577 37.83 25.1627 41.595 26.9777C39.435 27.0227 37.29 27.0977 35.175 27.5177C33.045 27.9527 31.005 28.6427 29.025 29.6027V29.6177Z" fill="black"/>
</svg>
