<?xml version="1.0" encoding="UTF-8"?><svg xmlns="http://www.w3.org/2000/svg" viewBox="0 0 44.65 40.39"><defs><style>.d{fill-rule:evenodd;}</style></defs><g id="a"/><g id="b"><g id="c"><g><rect x="13.86" y="38.96" width="16.36" height="1.43" rx=".72" ry=".72"/><path class="d" d="M2.61,21.9c0,7.56,5.08,14.03,12.25,16.66h14.36c7.18-2.63,12.25-9.1,12.25-16.66H2.61Z"/><path d="M39.63-1.11h.97c.83,0,1.5,.67,1.5,1.5V6.95c0,.83-.67,1.51-1.51,1.51h-.97c-.83,0-1.51-.67-1.51-1.51V.4c0-.83,.67-1.5,1.5-1.5Z" transform="translate(15.49 35.55) rotate(-57.54)"/><path class="d" d="M1.33,18.33H42.76c.73,0,1.33,.6,1.33,1.33h0c0,.73-.6,1.33-1.33,1.33H1.33c-.73,0-1.33-.6-1.33-1.33H0c0-.73,.6-1.33,1.33-1.33Z"/><polygon class="d" points="36.31 3.61 26.27 18.33 35.13 18.33 41.79 7.1 36.31 3.61"/></g></g></g></svg>