<?xml version="1.0" encoding="UTF-8"?><svg xmlns="http://www.w3.org/2000/svg" viewBox="0 0 39.83 44.64"><defs><style>.d{fill:#fff;}.d,.e{fill-rule:evenodd;}</style></defs><g id="a"/><g id="b"><g id="c"><g><path class="d" d="M18.47,0h3.22c9.1,0,16.55,7.59,16.55,16.87v23.1h.31c.71,0,1.28,.58,1.28,1.28v2.1c0,.71-.58,1.28-1.28,1.28H1.28c-.71,0-1.28-.58-1.28-1.28v-2.1c0-.71,.58-1.28,1.28-1.28h.31V17.21C1.59,7.74,9.19,0,18.47,0Z"/><path class="e" d="M19.91,8.27c6.87,0,12.44,5.57,12.44,12.44s-5.57,12.44-12.44,12.44-12.44-5.57-12.44-12.44,5.57-12.44,12.44-12.44Z"/><path class="d" d="M19.91,6.22c8,0,14.49,6.49,14.49,14.49s-6.49,14.49-14.49,14.49-14.49-6.49-14.49-14.49S11.91,6.22,19.91,6.22h0Zm0,2.26c-6.75,0-12.23,5.48-12.23,12.23s5.48,12.23,12.23,12.23,12.23-5.48,12.23-12.23-5.48-12.23-12.23-12.23Z"/><g><path class="d" d="M19.91,19.46c.69,0,1.25,.56,1.25,1.25s-.56,1.25-1.25,1.25-1.25-.56-1.25-1.25,.56-1.25,1.25-1.25Z"/><polygon class="d" points="19.91 19.46 23.97 13.51 20.89 19.93 19.91 19.46"/><polygon class="d" points="20.55 21.14 16.57 31.86 18.86 20.78 20.55 21.14"/></g><path class="d" d="M11.78,15.65c.15,.09,.21,.29,.12,.44-.09,.15-.28,.21-.44,.12l-2.3-1.33c-.15-.09-.21-.28-.12-.44,.09-.15,.28-.21,.44-.12l2.3,1.33Z"/><path class="d" d="M11.46,25.22c.15-.09,.35-.04,.44,.12,.09,.15,.04,.35-.12,.44l-2.3,1.33c-.15,.09-.35,.04-.44-.12-.09-.15-.04-.35,.12-.44l2.3-1.33Z"/><path class="d" d="M19.59,30.29c0-.18,.14-.32,.32-.32s.32,.14,.32,.32v2.66c0,.18-.15,.32-.32,.32s-.32-.14-.32-.32v-2.66Z"/><path class="d" d="M28.04,25.78c-.15-.09-.21-.29-.12-.44,.09-.15,.29-.21,.44-.12l2.3,1.33c.15,.09,.21,.29,.12,.44-.09,.15-.29,.21-.44,.12l-2.3-1.33Z"/><path class="d" d="M28.37,16.2c-.15,.09-.35,.04-.44-.12-.09-.15-.03-.35,.12-.44l2.3-1.33c.15-.09,.35-.03,.44,.12,.09,.15,.03,.35-.12,.44l-2.3,1.33Z"/><path class="d" d="M20.24,11.14c0,.18-.15,.32-.32,.32s-.32-.14-.32-.32v-2.66c0-.18,.14-.32,.32-.32s.32,.14,.32,.32v2.66Z"/></g></g></g></svg>