<svg width="45" height="46" viewBox="0 0 45 46" fill="none" xmlns="http://www.w3.org/2000/svg">
<g clip-path="url(#clip0_109_932)">
<path fill-rule="evenodd" clip-rule="evenodd" d="M5.16004 1.62769L19.785 15.4427C21.9 17.4377 17.67 21.1427 15.93 19.2977L2.11504 4.67269C0.705037 3.18769 3.57004 0.127687 5.16004 1.62769Z" fill="black" stroke="black" stroke-width="0.57" stroke-miterlimit="22.93"/>
<path fill-rule="evenodd" clip-rule="evenodd" d="M16.815 16.0427C22.11 20.0477 26.85 22.1177 30.795 23.8427C34.29 25.3727 37.17 26.6327 39.24 28.7177C41.67 31.1477 43.725 33.9377 44.475 36.5927C45.105 38.8127 44.835 40.9277 43.125 42.6377C41.415 44.3477 39.3 44.6177 37.08 43.9877C34.425 43.2377 31.62 41.1677 29.205 38.7527C27.12 36.6677 25.875 33.8027 24.33 30.3077C22.605 26.3627 20.52 21.6227 16.53 16.3277L15.645 15.1577L16.815 16.0427ZM30.39 24.5927C26.7 22.9727 22.545 20.6777 17.655 17.1677C21.165 22.0577 23.415 26.0477 25.035 29.7377C26.55 33.2027 27.69 35.9027 29.715 37.9277C32.1 40.3127 34.545 42.5477 37.11 43.2827C39.195 43.8827 41.25 43.9577 42.84 42.3677C44.43 40.7777 44.16 38.7677 43.56 36.6827C42.825 34.1027 41.085 31.7627 38.7 29.3777C36.675 27.3527 33.84 26.1227 30.39 24.6077V24.5927Z" fill="black"/>
<path fill-rule="evenodd" clip-rule="evenodd" d="M18.795 18.0227C23.46 21.9377 27.585 23.8727 30.825 25.8527C33.705 27.6077 36.12 28.9577 38.025 30.8627C40.26 33.0977 42.21 35.8127 43.23 37.9277C44.1 39.7277 44.055 41.5277 43.02 42.5627C41.985 43.5977 40.2 43.8977 38.4 43.0277C36.285 42.0077 33.72 40.0427 31.485 37.8077C29.58 35.9027 28.05 33.4277 26.295 30.5477C24.33 27.2927 22.395 22.9877 18.495 18.3227L16.995 16.5377L18.78 18.0377L18.795 18.0227ZM30.405 26.6177C27.51 24.8627 24.09 22.7927 20.1 19.6127C23.28 23.6027 25.35 27.0227 27.105 29.9177C28.845 32.7827 30.255 35.1227 32.13 36.9977C34.335 39.2027 36.735 41.1827 38.805 42.1877C40.44 42.9827 41.85 43.1327 42.735 42.2627C43.62 41.3927 43.455 39.9677 42.66 38.3327C41.67 36.2627 39.675 33.8627 37.47 31.6577C35.595 29.7827 33.255 28.3577 30.39 26.6327L30.405 26.6177Z" fill="black"/>
<path fill-rule="evenodd" clip-rule="evenodd" d="M18.81 18.0377C23.265 22.1477 26.775 24.9527 29.685 27.2627C32.25 29.3177 34.365 30.9977 36.27 32.8877C38.49 35.1077 40.62 37.4327 41.925 39.2327C43.05 40.7927 43.575 42.0227 43.05 42.5477C42.525 43.0727 41.31 42.5477 39.735 41.4227C37.92 40.1177 35.61 37.9877 33.39 35.7677C31.5 33.8777 29.805 31.7627 27.765 29.1827C25.44 26.2727 22.65 22.7627 18.54 18.3077L18.825 18.0227L18.81 18.0377ZM29.19 27.8477C26.94 26.0477 24.57 23.7227 21.435 20.9627C24.195 24.0977 26.49 26.3027 28.275 28.5527C30.315 31.1177 32.04 33.2027 33.93 35.0927C36.135 37.2977 38.265 39.5177 40.05 40.8077C41.445 41.8127 42.39 42.6377 42.735 42.2777C43.08 41.9177 42.345 41.2577 41.34 39.8627C40.05 38.0777 37.89 35.8277 35.685 33.6227C33.795 31.7327 31.74 29.8877 29.175 27.8477H29.19Z" fill="black"/>
<path fill-rule="evenodd" clip-rule="evenodd" d="M22.38 26.3627C22.245 26.4977 22.005 26.4977 21.87 26.3627C21.735 26.2277 21.735 25.9877 21.87 25.8527L26.34 21.3827C26.475 21.2477 26.715 21.2477 26.85 21.3827C26.985 21.5177 26.985 21.7577 26.85 21.8927L22.38 26.3627Z" fill="black"/>
</g>
<defs>
<clipPath id="clip0_109_932">
<rect width="45" height="45" fill="white" transform="translate(0 0.00769043)"/>
</clipPath>
</defs>
</svg>
