<?xml version="1.0" encoding="UTF-8"?><svg xmlns="http://www.w3.org/2000/svg" viewBox="0 0 44.41 44.43"><defs><style>.d{stroke:#000;stroke-miterlimit:22.93;stroke-width:.57px;}.d,.e{fill-rule:evenodd;}</style></defs><g id="a"/><g id="b"><g id="c"><g><path class="d" d="M3.79,.69l14.98,14.16c2.17,2.05-2.16,5.84-3.95,3.95L.67,3.82C-.77,2.3,2.17-.84,3.79,.69Z"/><path class="e" d="M15.73,15.46c5.42,4.1,10.29,6.23,14.32,8,3.59,1.57,6.53,2.86,8.66,4.99,2.49,2.49,4.59,5.36,5.37,8.08,.65,2.28,.37,4.45-1.38,6.2s-3.92,2.03-6.2,1.38c-2.72-.78-5.59-2.88-8.08-5.37-2.13-2.13-3.42-5.07-4.99-8.66-1.77-4.04-3.9-8.9-8-14.32l-.9-1.19,1.19,.9h0Zm13.91,8.76c-3.78-1.66-8.04-4.01-13.06-7.61,3.6,5.01,5.91,9.1,7.57,12.88,1.55,3.55,2.72,6.32,4.8,8.39,2.44,2.44,4.94,4.73,7.59,5.48,2.13,.61,4.24,.69,5.87-.94,1.63-1.63,1.35-3.7,.74-5.83-.75-2.64-2.54-5.05-4.98-7.49-2.08-2.08-4.97-3.34-8.52-4.89Z"/><path class="e" d="M17.77,17.51c4.77,4.01,9,6,12.33,8.02h0c2.96,1.79,5.43,3.18,7.38,5.13,2.28,2.28,4.29,5.07,5.33,7.24,.89,1.84,.84,3.7-.21,4.75s-2.89,1.36-4.73,.48c-2.16-1.04-4.8-3.06-7.09-5.34-1.95-1.95-3.52-4.49-5.31-7.45h0c-2.02-3.33-3.99-7.75-8-12.52l-1.54-1.83,1.83,1.54h0Zm11.9,8.81c-2.97-1.8-6.47-3.92-10.56-7.18,3.26,4.09,5.38,7.59,7.18,10.56h0c1.78,2.93,3.23,5.33,5.15,7.25,2.26,2.26,4.72,4.29,6.84,5.32,1.68,.81,3.13,.97,4.03,.07s.74-2.35-.07-4.03c-1.02-2.12-3.06-4.58-5.32-6.84-1.92-1.92-4.32-3.38-7.25-5.15h0Z"/><path class="e" d="M17.78,17.51c4.57,4.22,8.16,7.08,11.14,9.46,2.64,2.1,4.8,3.83,6.74,5.77,2.27,2.27,4.45,4.65,5.79,6.51,1.16,1.6,1.69,2.85,1.15,3.39s-1.79,0-3.39-1.15c-1.85-1.34-4.23-3.52-6.51-5.79-1.94-1.94-3.67-4.11-5.77-6.74-2.38-2.98-5.24-6.58-9.46-11.14l.29-.29h0Zm10.64,10.05c-2.31-1.84-4.74-4.23-7.94-7.06,2.82,3.21,5.17,5.47,7.01,7.78,2.09,2.62,3.86,4.76,5.79,6.69,2.26,2.26,4.45,4.53,6.27,5.85,1.43,1.03,2.4,1.87,2.76,1.51,.36-.36-.4-1.04-1.43-2.47-1.32-1.83-3.53-4.13-5.79-6.39-1.93-1.93-4.04-3.82-6.66-5.91Z"/><path class="e" d="M21.44,26.04c-.15,.15-.38,.15-.53,0s-.15-.38,0-.53l4.58-4.58c.15-.15,.38-.15,.53,0s.15,.38,0,.53l-4.58,4.58Z"/></g></g></g></svg>