<svg width="45" height="46" viewBox="0 0 45 46" fill="none" xmlns="http://www.w3.org/2000/svg">
<g clip-path="url(#clip0_109_938)">
<path fill-rule="evenodd" clip-rule="evenodd" d="M21.705 0.607697H24.87C33.795 0.607697 41.1 8.0477 41.1 17.1527V39.8177H41.4C42.09 39.8177 42.66 40.3877 42.66 41.0777V43.1327C42.66 43.8227 42.09 44.3927 41.4 44.3927H4.84496C4.15496 44.3927 3.58496 43.8227 3.58496 43.1327V41.0777C3.58496 40.3877 4.15496 39.8177 4.84496 39.8177H5.14496V17.4977C5.14496 8.2127 12.6 0.607697 21.705 0.607697Z" fill="black"/>
<path fill-rule="evenodd" clip-rule="evenodd" d="M23.115 8.72269C29.85 8.72269 35.325 14.1827 35.325 20.9327C35.325 27.6827 29.865 33.1427 23.115 33.1427C16.365 33.1427 10.905 27.6827 10.905 20.9327C10.905 14.1827 16.38 8.72269 23.115 8.72269Z" fill="white"/>
<path fill-rule="evenodd" clip-rule="evenodd" d="M23.115 6.71269C30.96 6.71269 37.335 13.0727 37.335 20.9327C37.335 28.7927 30.975 35.1527 23.115 35.1527C15.255 35.1527 8.89502 28.7777 8.89502 20.9327C8.89502 13.0877 15.27 6.71269 23.115 6.71269ZM23.115 8.93269C16.485 8.93269 11.115 14.3027 11.115 20.9327C11.115 27.5627 16.485 32.9327 23.115 32.9327C29.745 32.9327 35.115 27.5627 35.115 20.9327C35.115 14.3027 29.745 8.93269 23.115 8.93269Z" fill="black"/>
<path fill-rule="evenodd" clip-rule="evenodd" d="M23.115 19.7027C23.79 19.7027 24.345 20.2577 24.345 20.9327C24.345 21.6077 23.79 22.1627 23.115 22.1627C22.44 22.1627 21.885 21.6077 21.885 20.9327C21.885 20.2577 22.44 19.7027 23.115 19.7027Z" fill="black"/>
<path fill-rule="evenodd" clip-rule="evenodd" d="M23.115 19.7027L27.09 13.8677L24.075 20.1677L23.115 19.7027Z" fill="black"/>
<path fill-rule="evenodd" clip-rule="evenodd" d="M23.745 21.3527L19.845 31.8677L22.08 20.9927L23.745 21.3527Z" fill="black"/>
<path fill-rule="evenodd" clip-rule="evenodd" d="M15.135 15.9677C15.285 16.0577 15.345 16.2527 15.255 16.4027C15.165 16.5527 14.97 16.6127 14.82 16.5227L12.57 15.2177C12.42 15.1277 12.36 14.9327 12.45 14.7827C12.54 14.6327 12.735 14.5727 12.885 14.6627L15.135 15.9677Z" fill="black"/>
<path fill-rule="evenodd" clip-rule="evenodd" d="M14.82 25.3577C14.97 25.2677 15.165 25.3277 15.255 25.4777C15.345 25.6277 15.285 25.8227 15.135 25.9127L12.885 27.2177C12.735 27.3077 12.54 27.2477 12.45 27.0977C12.36 26.9477 12.42 26.7527 12.57 26.6627L14.82 25.3577Z" fill="black"/>
<path fill-rule="evenodd" clip-rule="evenodd" d="M22.8 30.3227C22.8 30.1427 22.935 30.0077 23.115 30.0077C23.295 30.0077 23.43 30.1427 23.43 30.3227V32.9327C23.43 33.1127 23.295 33.2477 23.115 33.2477C22.935 33.2477 22.8 33.1127 22.8 32.9327V30.3227Z" fill="black"/>
<path fill-rule="evenodd" clip-rule="evenodd" d="M31.095 25.8977C30.945 25.8077 30.9 25.6127 30.975 25.4627C31.065 25.3127 31.26 25.2677 31.41 25.3427L33.66 26.6477C33.81 26.7377 33.855 26.9327 33.78 27.0827C33.69 27.2327 33.495 27.2777 33.345 27.2027L31.095 25.8977Z" fill="black"/>
<path fill-rule="evenodd" clip-rule="evenodd" d="M31.41 16.5077C31.26 16.5977 31.065 16.5377 30.975 16.3877C30.885 16.2377 30.945 16.0427 31.095 15.9527L33.345 14.6477C33.495 14.5577 33.69 14.6177 33.78 14.7677C33.87 14.9177 33.81 15.1127 33.66 15.2027L31.41 16.5077Z" fill="black"/>
<path fill-rule="evenodd" clip-rule="evenodd" d="M23.43 11.5427C23.43 11.7227 23.295 11.8577 23.115 11.8577C22.935 11.8577 22.8 11.7227 22.8 11.5427V8.93269C22.8 8.75269 22.935 8.61769 23.115 8.61769C23.295 8.61769 23.43 8.75269 23.43 8.93269V11.5427Z" fill="black"/>
</g>
<defs>
<clipPath id="clip0_109_938">
<rect width="45" height="45" fill="white" transform="translate(0 0.00769043)"/>
</clipPath>
</defs>
</svg>
