<?xml version="1.0" encoding="UTF-8"?><svg xmlns="http://www.w3.org/2000/svg" viewBox="0 0 41.59 40.19"><defs><style>.d{fill:#fff;}</style></defs><g id="a"/><g id="b"><g id="c"><path class="d" d="M40.55,8.54c-1.3-2.76-4.04-3.11-6.45-2.78-.65,.09-1.28,.23-1.85,.38-.69,.19-1.38-.12-1.73-.69-.14-.23-.23-.5-.23-.8,0-.62-.02-.96-.02-.96,0-2.04-6.78-3.69-15.14-3.69S0,1.65,0,3.69c0,0,.23,22.08,5.94,33.59h0c.22,.62,.91,1.18,1.93,1.64,1.24,.56,2.98,.98,4.98,1.16,.73,.07,1.49,.1,2.27,.1,4.71,0,8.59-1.26,9.18-2.9h.09c.37-.75,.88-2.02,1.26-3.03,.36-.95,1.13-1.69,2.08-2.04,14.09-5.25,15.32-18.35,12.8-23.67Zm-16.02-1.34c-2.45,.57-5.75,.91-9.39,.91s-6.94-.34-9.39-.91c-2.62-.61-4.26-1.47-4.26-2.42C1.48,2.94,7.59,1.45,15.13,1.45s13.65,1.49,13.65,3.33c0,.95-1.64,1.81-4.26,2.42Zm12.62,13.28c-.12,.32-.25,.63-.39,.92-1.95,4.14-5.72,5.27-8.18,5.55-.4,.04-.73-.31-.64-.71,.09-.45,.18-.9,.27-1.34,.76-3.91,1.25-7.88,1.56-11.3,.33,.26,.74,.41,1.2,.4,.4,0,.76-.17,1.02-.43,.26-.26,.43-.61,.46-1,.08-1.44,.61-3.51,3.03-3.88,3.76-.58,4.41,4.34,1.66,11.8Z"/></g></g></svg>